<svg width="400" height="400" viewBox="0 0 400 400" fill="none" xmlns="http://www.w3.org/2000/svg">
<path d="M115.822 84.7144C115.538 91.2534 112.494 102.802 116.938 108.406C118.348 110.184 121.35 111.009 123.13 109.29C124.211 108.246 128.12 99.9141 128.707 100.983C131.338 105.782 131.749 111.674 134.36 116.559C137.097 121.68 139.522 115.913 140.898 113.021C144.444 105.57 147.459 97.6544 149.437 89.6373C149.79 88.2048 149.701 84.7358 151.129 84.0222" stroke="white" stroke-width="8" stroke-linecap="round"/>
<path d="M160.128 85.4067C160.128 94.7939 159.319 104.115 156.706 113.175C156.119 115.209 154.052 121.061 154.052 118.944C154.052 116.123 156.387 112.958 158.398 111.252C164.504 106.071 173.608 107.683 177.512 114.636C179.779 118.674 180.205 123.777 180.205 128.328" stroke="white" stroke-width="8" stroke-linecap="round"/>
<path d="M201.665 125.559C195.616 125.559 189.007 124.522 191.897 116.175C195.297 106.35 207.299 113.206 203.742 122.098" stroke="white" stroke-width="8" stroke-linecap="round"/>
<path d="M211.357 105.483C212.312 115.624 211.228 125.209 209.973 135.251" stroke="white" stroke-width="8" stroke-linecap="round"/>
<path d="M228.664 87.4835C229.032 99.6418 230.508 111.724 230.702 123.905C230.728 125.494 231.917 133.624 230.049 134.559" stroke="white" stroke-width="8" stroke-linecap="round"/>
<path d="M225.203 119.328C235.432 118.76 245.373 116.559 255.663 116.559" stroke="white" stroke-width="8" stroke-linecap="round"/>
<path d="M277.124 91.6372C276.81 103.89 276.763 116.982 274.355 129.02" stroke="white" stroke-width="8" stroke-linecap="round"/>
<path d="M95.7466 141.481C95.4029 142.741 94.2616 143.688 93.5159 144.712C90.5385 148.8 88.963 153.536 87.9007 158.442C87.3296 161.081 85.349 167.965 87.0546 170.634C88.0927 172.259 93.6269 167.83 94.4774 167.25C95.8036 166.344 96.678 165.22 97.2465 167.096C98.2386 170.37 99.9368 175.378 103.208 177.095C108.162 179.697 116.171 154.919 117.9 151.173" stroke="white" stroke-width="8" stroke-linecap="round"/>
<path d="M137.283 179.557C128.294 176.561 126.023 164.394 133.822 158.865C138.307 155.685 142.777 156.926 144.59 162.173C146.24 166.944 145.242 169.695 142.821 173.326" stroke="white" stroke-width="8" stroke-linecap="round"/>
<path d="M161.513 157.404C161.159 164.668 153.856 185.357 154.705 178.134C155.066 175.072 156.503 171.885 157.859 169.173C158.861 167.17 160 164.977 161.705 163.442C164.963 160.51 166.863 162.531 170.513 162.25" stroke="white" stroke-width="8" stroke-linecap="round"/>
<path d="M190.589 140.789C188.284 144.369 186.37 147.95 184.666 151.866C182.713 156.355 177.993 164.456 179.397 169.634C181.043 175.703 197.331 168.914 196.935 164.557C196.826 163.356 183.927 166.237 189.589 173.019C192.577 176.597 197.077 175.609 200.281 178.172" stroke="white" stroke-width="8" stroke-linecap="round"/>
<path d="M243.202 161.558C239.414 168.187 237.141 176.573 234.51 183.749C232.887 188.175 236.986 179.861 239.472 184.095C241.196 187.033 245.751 197.637 250.664 192.172C254.999 187.348 255.328 178.106 256.356 171.942" stroke="white" stroke-width="8" stroke-linecap="round"/>
<path d="M269.509 179.557C270.398 183.013 270.668 186.578 270.855 190.133C270.967 192.272 270.893 190.466 270.893 189.941" stroke="white" stroke-width="8" stroke-linecap="round"/>
<path d="M303.431 157.404C303.715 163.95 304.373 170.477 304.738 177.018C304.95 180.804 305.213 185.14 304.969 188.98C304.704 193.138 304.13 191.709 302.738 194.095" stroke="white" stroke-width="8" stroke-linecap="round"/>
<path d="M288.2 177.48C291.742 176.566 295.349 176.928 298.969 176.672C304.621 176.273 307.864 174.217 312.43 171.25" stroke="white" stroke-width="8" stroke-linecap="round"/>
<path d="M324.891 157.404C326.258 171.147 327.615 185.049 326.545 198.864C326.441 200.203 326.209 201.53 326.045 202.864C325.88 204.203 325.76 204.171 326.506 202.941C328.65 199.406 330.911 196.145 333.775 193.133C337.885 188.813 339.928 187.909 340.121 194.172C340.284 199.445 340.538 204.343 342.198 209.325" stroke="white" stroke-width="8" stroke-linecap="round"/>
<path d="M271.462 157.746C270.634 158.022 270.603 159.027 270.458 159.755" stroke="white" stroke-width="8" stroke-linecap="round"/>
<path d="M92.6648 97C87.6916 99.3024 82.9793 98.9553 77.5983 99.1818C67.1624 99.6212 60.7182 106.601 53.8929 113.865C44.3595 124.011 37.9714 134.515 35.7011 148.421C34.4516 156.074 34.358 163.864 34.1679 171.595C33.9905 178.81 33.7539 186.053 34.6396 193.237C36.1227 205.266 40.8162 216.676 45.6963 227.674C49.9613 237.287 55.1326 246.879 61.3819 255.36C67.8524 264.142 74.8988 272.492 81.5197 281.159C83.5118 283.767 85.7129 286.892 88.1832 288.913C89.7158 290.167 90.9558 290.07 92.6648 290.83C93.0687 291.009 94.1127 291.69 94.2274 290.83C94.8943 285.828 92.4506 279.523 91.8687 274.555C90.9473 266.688 89.4805 259.359 89.4805 251.439" stroke="white" stroke-width="8" stroke-linecap="round"/>
<path d="M96.9103 289.12C81.9347 290.481 66.8384 289.12 51.7993 289.12" stroke="white" stroke-width="8" stroke-linecap="round"/>
</svg>
