<svg width="400" height="400" viewBox="0 0 400 400" fill="none" xmlns="http://www.w3.org/2000/svg">
<path d="M104.778 94.8079C99.8044 97.1103 95.0921 96.7632 89.7111 96.9898C79.2752 97.4292 72.831 104.409 66.0057 111.673C56.4723 121.819 50.0842 132.323 47.8139 146.229C46.5644 153.882 46.4708 161.672 46.2807 169.403C46.1033 176.618 45.8667 183.861 46.7524 191.045C48.2355 203.074 52.929 214.484 57.809 225.482C62.0741 235.095 67.2454 244.687 73.4947 253.168C79.9652 261.95 87.0116 270.3 93.6325 278.967C95.6246 281.575 97.8257 284.7 100.296 286.721C101.829 287.975 103.069 287.878 104.778 288.638C105.182 288.817 106.225 289.498 106.34 288.638C107.007 283.636 104.563 277.331 103.981 272.362C103.06 264.496 101.593 257.167 101.593 249.247" stroke="white" stroke-width="8" stroke-linecap="round"/>
<path d="M109.023 286.928C94.0475 288.289 78.9512 286.928 63.9121 286.928" stroke="white" stroke-width="8" stroke-linecap="round"/>
<path d="M119.107 115.506C119.107 105.134 119.205 94.8957 121.112 84.6653C121.544 82.349 123.921 90.375 124.001 90.6212C126.346 97.7762 128.208 105.135 129.485 112.557C129.608 113.268 129.571 115.072 130.134 114.621C132.058 113.083 134.489 108.964 135.854 107.368C140.852 101.526 146.151 95.9331 152.011 90.9455C153.216 89.9201 156.244 87.134 158.144 86.5523C160.471 85.84 159.269 112.461 158.911 115.506" stroke="white" stroke-width="8" stroke-linecap="round"/>
<path d="M176.955 104.361C171.699 106.814 169.866 116.672 170.144 121.816C170.281 124.346 175.347 120.619 175.953 120.223C182.213 116.139 186.895 110.507 192.375 105.54C195.964 102.288 194.121 111.197 194.026 112.174C193.087 121.848 191.222 132.161 186.272 140.686C183.271 145.854 177.752 151.296 171.294 148.528C165.731 146.144 162.319 140.868 158.911 136.204" stroke="white" stroke-width="8" stroke-linecap="round"/>
<path d="M219.943 107.545C216.703 109.313 217.071 116.67 217.496 119.516C217.716 120.99 218.764 127.868 220.975 128.184C222.592 128.415 224.766 121.204 225.162 120.282C225.701 119.028 226.706 115.315 227.727 118.513C228.888 122.149 229.304 129.895 233.211 131.958C237.065 133.993 240.512 123.069 241.113 121.344C242.771 116.581 242.999 112.422 243.295 107.545" stroke="white" stroke-width="8" stroke-linecap="round"/>
<path d="M260.278 133.02C256.695 134.346 251.856 134.615 248.661 132.135C241.069 126.244 255.753 120.943 259.511 120.223C262.821 119.589 268.834 118.626 271.069 122.258C273.45 126.127 269.955 131.177 267.295 133.727C264.386 136.516 260.145 138.62 256.032 138.209C253.139 137.919 253.797 136.746 252.317 135.142" stroke="white" stroke-width="8" stroke-linecap="round"/>
<path d="M284.691 117.629C285.674 123.406 285.121 129.514 284.691 135.319C284.644 135.954 284.386 139.077 284.219 140.243C284.027 141.588 284.434 137.525 284.75 136.204C285.904 131.377 288.717 123.418 294.509 122.464C299.626 121.621 303.986 128.326 306.981 131.427" stroke="white" stroke-width="8" stroke-linecap="round"/>
<path d="M324.495 103.299C321.479 111.798 315.938 119.225 312.76 127.653C308.354 139.34 323.006 134.286 327.355 129.393C327.582 129.137 327.946 128.634 327.679 128.42C326.93 127.821 323.872 129.368 323.787 129.422C321.54 130.867 319.477 133.527 321.664 136.056C325.865 140.913 335.143 141.377 340.947 143.634" stroke="white" stroke-width="8" stroke-linecap="round"/>
<path d="M140.336 146.288C133.125 149.965 134.626 158.904 136.385 165.747C137.296 169.291 138.382 171.371 140.454 174.121C141.062 174.928 142.726 175.631 142.282 176.538C140.915 179.325 126.666 174.984 125.004 174.533C123.481 174.121 118.972 172.864 117.397 171.349C115.497 169.522 118.064 170.336 117.515 168.578" stroke="white" stroke-width="8" stroke-linecap="round"/>
<path d="M165.279 142.573C165.115 157.327 162.321 171.692 159.441 186.091" stroke="white" stroke-width="8" stroke-linecap="round"/>
<path d="M153.073 169.108C160.653 167.016 169.055 164.507 176.837 163.035C199.991 158.654 172.697 164.312 192.346 161.678" stroke="white" stroke-width="8" stroke-linecap="round"/>
<path d="M204.552 164.332C204.883 173.793 204.618 183.389 205.555 192.814C205.855 195.83 205.834 197.612 208.267 198.829" stroke="white" stroke-width="8" stroke-linecap="round"/>
<path d="M230.027 173.354C222.641 173.354 218.736 182.119 218.115 188.391C217.295 196.675 222.423 194.827 227.373 192.46" stroke="white" stroke-width="8" stroke-linecap="round"/>
<path d="M252.848 152.656C246.803 157.436 241.915 166.234 240.287 173.649C236.77 189.671 259.02 182.698 265.88 177.452C268.817 175.207 266.181 174.961 264.14 175.212C260.408 175.671 253.74 178.03 254.027 183.025C254.34 188.47 261.839 191.992 265.762 193.964C270.17 196.179 274.783 197.645 279.384 199.359" stroke="white" stroke-width="8" stroke-linecap="round"/>
<path d="M202.652 171.586C199.243 171.586 195.921 172.076 193.075 174.147C188.011 177.829 185.177 188.776 191.888 192.404C196.583 194.942 200.368 189.311 202.334 185.85C203.378 184.011 203.953 181.997 203.433 179.919" stroke="white" stroke-width="8" stroke-linecap="round"/>
</svg>
