<?xml version="1.0" standalone="no"?>
<!DOCTYPE svg PUBLIC "-//W3C//DTD SVG 20010904//EN"
 "http://www.w3.org/TR/2001/REC-SVG-20010904/DTD/svg10.dtd">
<svg version="1.0" xmlns="http://www.w3.org/2000/svg"
 width="1000.000000pt" height="1000.000000pt" viewBox="0 0 1000.000000 1000.000000"
 preserveAspectRatio="xMidYMid meet">
<metadata>
Created by potrace 1.14, written by Peter Selinger 2001-2017
</metadata>
<g transform="translate(0.000000,1000.000000) scale(0.100000,-0.100000)"
fill="#000000" stroke="none">
<path d="M4808 7825 c-3 -4 -20 -7 -37 -7 -17 -1 -31 -4 -31 -9 0 -4 -8 -6
-17 -4 -10 1 -24 -3 -32 -9 -11 -8 -13 -8 -7 2 9 15 9 15 -48 -4 -26 -9 -50
-13 -53 -10 -4 3 -15 -1 -25 -11 -10 -9 -18 -13 -18 -9 0 4 -10 0 -22 -8 -12
-9 -30 -16 -40 -16 -10 0 -18 -5 -18 -12 0 -6 -3 -8 -6 -5 -7 7 -64 -22 -76
-38 -4 -5 -8 -6 -8 -2 0 5 -13 -1 -29 -12 -16 -12 -34 -21 -40 -21 -6 0 -11
-4 -11 -8 0 -11 -63 -47 -75 -43 -5 1 -7 0 -3 -4 7 -7 -14 -35 -26 -35 -7 0
-59 -44 -87 -74 -11 -11 -19 -26 -19 -33 0 -8 -4 -11 -10 -8 -5 3 -10 1 -10
-5 0 -6 -17 -28 -38 -48 -21 -21 -41 -45 -45 -55 -3 -9 -11 -17 -17 -17 -6 0
-8 -4 -5 -10 3 -5 1 -10 -4 -10 -6 0 -11 -6 -11 -14 0 -8 -7 -17 -16 -20 -8
-3 -12 -10 -9 -16 3 -5 1 -10 -6 -10 -7 0 -10 -3 -6 -6 3 -3 -5 -18 -19 -32
-13 -15 -24 -35 -24 -44 0 -10 -5 -18 -11 -18 -5 0 -8 -4 -4 -9 3 -5 0 -15 -7
-23 -7 -7 -14 -20 -16 -28 -2 -8 -8 -18 -14 -21 -5 -3 -9 -8 -8 -10 4 -9 -34
-79 -43 -79 -5 0 -7 -6 -4 -14 3 -8 -1 -17 -9 -20 -8 -3 -14 -9 -13 -13 2 -15
-13 -53 -22 -53 -5 0 -8 -3 -8 -7 3 -16 -23 -73 -34 -73 -6 0 -7 -3 -4 -7 4
-3 2 -12 -3 -19 -6 -6 -13 -22 -15 -35 -3 -12 -10 -26 -16 -29 -6 -4 -11 -10
-10 -13 1 -17 -31 -77 -38 -72 -5 3 -7 -4 -4 -15 3 -12 0 -20 -8 -20 -7 0 -9
-3 -6 -7 4 -3 -1 -12 -11 -20 -9 -8 -12 -12 -6 -9 6 3 -4 -24 -23 -59 -19 -36
-39 -65 -44 -65 -6 0 -8 -4 -4 -9 7 -12 -15 -61 -27 -61 -5 0 -7 -4 -3 -9 3
-5 1 -12 -5 -16 -6 -4 -8 -11 -5 -16 4 -5 1 -9 -4 -9 -6 0 -11 -3 -10 -7 2
-16 -14 -53 -23 -53 -5 0 -6 -4 -3 -10 3 -5 1 -10 -5 -10 -6 0 -9 -4 -5 -9 3
-5 1 -12 -5 -16 -6 -4 -8 -11 -5 -16 4 -5 2 -9 -3 -9 -5 0 -12 -9 -15 -21 -4
-13 -10 -18 -18 -13 -7 4 -10 3 -6 -3 9 -14 -17 -76 -27 -66 -4 4 -4 0 0 -10
3 -10 1 -17 -6 -17 -6 0 -9 -4 -5 -9 3 -6 -3 -14 -12 -20 -10 -6 -14 -11 -10
-11 4 0 2 -10 -5 -22 -7 -13 -11 -29 -9 -37 1 -7 -2 -10 -8 -6 -9 5 -16 -8 -9
-17 1 -2 -5 -14 -12 -28 -8 -14 -13 -28 -12 -32 1 -5 -3 -8 -9 -8 -5 0 -7 -5
-4 -10 3 -6 0 -13 -9 -16 -8 -3 -12 -12 -9 -20 3 -7 -2 -17 -11 -20 -9 -3 -14
-10 -11 -14 3 -5 1 -11 -5 -15 -5 -3 -10 -15 -10 -26 0 -10 -4 -19 -9 -19 -4
0 -19 -25 -32 -55 -13 -30 -27 -55 -31 -55 -4 0 -4 -7 -1 -17 4 -11 3 -14 -5
-9 -7 4 -12 1 -12 -9 0 -9 -11 -37 -25 -63 -14 -26 -25 -53 -25 -59 0 -7 -4
-13 -9 -13 -5 0 -12 -12 -16 -27 -3 -15 -10 -30 -13 -33 -4 -3 -18 -29 -31
-57 -14 -29 -29 -53 -34 -53 -6 0 -8 -3 -4 -6 6 -7 -99 -220 -113 -229 -6 -4
-8 -10 -5 -15 3 -5 -3 -23 -14 -41 -11 -18 -18 -36 -15 -41 3 -4 1 -8 -4 -8
-5 0 -16 -15 -23 -32 -7 -18 -19 -39 -26 -46 -7 -8 -11 -18 -8 -23 4 -5 2 -9
-2 -9 -5 0 -15 -17 -22 -37 -8 -21 -17 -40 -20 -43 -4 -3 -15 -23 -25 -45 -11
-22 -24 -43 -30 -47 -7 -5 -6 -8 3 -8 10 0 11 -3 2 -14 -19 -23 -61 -106 -61
-122 0 -8 -4 -12 -10 -9 -5 3 -10 -3 -10 -14 0 -12 -4 -21 -10 -21 -5 0 -9 -3
-9 -7 3 -14 -25 -73 -34 -73 -4 0 -5 -4 -2 -10 3 -5 2 -10 -3 -10 -9 0 -27
-47 -24 -62 1 -5 -3 -8 -8 -8 -6 0 -10 -7 -10 -15 0 -8 -3 -15 -8 -15 -7 0
-44 -93 -42 -106 1 -3 -7 -12 -17 -20 -10 -7 -15 -14 -10 -14 4 0 -4 -18 -18
-40 -14 -22 -25 -49 -25 -60 0 -12 -4 -18 -10 -15 -9 5 -15 -15 -11 -37 0 -5
-4 -8 -9 -8 -6 0 -10 -7 -10 -15 0 -8 -4 -15 -10 -15 -5 0 -9 -3 -9 -7 4 -24
-2 -43 -12 -38 -6 4 -10 1 -8 -6 3 -25 -1 -40 -9 -35 -4 2 -12 -7 -19 -20 -8
-18 -8 -22 0 -17 7 4 6 -1 -2 -10 -7 -9 -10 -17 -5 -17 4 0 -1 -7 -12 -16 -10
-8 -12 -12 -4 -8 10 5 8 -1 -5 -16 -11 -13 -13 -20 -6 -15 8 5 5 -6 -8 -23
-12 -18 -19 -32 -14 -32 4 0 0 -5 -9 -11 -10 -5 -15 -16 -12 -24 4 -8 1 -15
-5 -15 -6 0 -11 -7 -11 -16 0 -8 -5 -25 -12 -37 -12 -22 -18 -42 -20 -64 -1
-7 -6 -13 -12 -13 -6 0 -6 -4 2 -12 8 -8 7 -18 -8 -38 -12 -17 -16 -31 -10
-40 5 -8 6 -19 3 -24 -4 -6 -8 -43 -9 -84 -1 -40 -5 -76 -8 -79 -3 -3 -1 -12
5 -19 7 -8 7 -14 -1 -19 -8 -5 -8 -11 1 -21 6 -7 9 -19 7 -26 -3 -7 -2 -22 2
-33 4 -11 4 -32 -1 -48 -5 -16 -4 -25 2 -22 5 4 9 -5 9 -19 0 -14 4 -26 9 -26
4 0 6 -12 3 -26 -3 -16 -1 -25 5 -21 6 4 9 -6 8 -23 -1 -17 2 -30 7 -30 5 0 6
-4 3 -10 -3 -5 -1 -10 5 -10 6 0 8 -4 5 -10 -3 -5 -1 -10 4 -10 6 0 11 -7 11
-15 0 -8 11 -35 25 -60 14 -25 23 -45 20 -45 -2 0 3 -9 13 -20 9 -12 17 -25
17 -30 0 -4 10 -20 22 -34 13 -15 23 -28 23 -31 0 -15 147 -165 161 -165 5 0
12 -7 15 -15 4 -8 10 -12 15 -9 5 3 9 0 9 -5 0 -6 7 -11 16 -11 8 0 12 -4 9
-10 -3 -5 1 -10 10 -10 10 0 13 -5 9 -12 -4 -7 -3 -8 4 -4 6 4 29 -5 51 -19
23 -14 45 -25 51 -25 5 0 10 -5 10 -11 0 -5 5 -7 10 -4 6 3 10 1 10 -5 0 -6 5
-8 10 -5 6 3 10 1 10 -5 0 -7 7 -9 16 -6 8 3 13 2 10 -2 -3 -5 17 -15 44 -22
28 -8 50 -17 50 -21 0 -5 6 -6 14 -3 8 3 17 1 20 -5 4 -6 13 -8 20 -5 8 3 17
0 21 -5 3 -6 10 -9 15 -6 5 3 12 1 15 -5 5 -8 11 -7 21 1 8 6 14 7 14 2 0 -5
20 -8 45 -7 25 1 43 -1 41 -5 -2 -3 45 -6 106 -6 60 1 112 -3 114 -7 3 -4 13
-2 24 4 14 9 22 9 33 -1 10 -8 17 -9 22 -1 3 5 13 10 21 10 10 0 12 -5 8 -12
-6 -10 -4 -10 7 -2 8 7 29 10 47 8 23 -3 31 0 26 8 -4 7 -3 8 5 4 20 -13 122
-16 114 -4 -4 7 -1 8 8 3 19 -12 199 -14 199 -2 0 6 5 6 13 0 15 -12 87 -11
106 1 10 6 12 5 7 -2 -5 -8 1 -12 14 -12 13 0 19 4 14 12 -4 7 -3 8 5 4 21
-14 122 -16 114 -3 -5 9 -3 9 8 1 8 -5 50 -10 94 -9 45 0 83 -4 87 -10 5 -6 8
-5 8 3 0 8 8 10 26 6 22 -6 25 -4 19 7 -7 11 -6 12 7 2 8 -7 18 -10 21 -6 4 3
13 0 21 -6 9 -7 17 -8 20 -2 7 10 85 9 103 -2 6 -4 14 -4 17 1 6 11 257 9 275
-2 10 -6 12 -5 7 2 -10 16 36 16 53 -1 8 -6 11 -7 8 -1 -8 14 94 15 112 0 10
-7 13 -7 8 0 -4 7 50 10 179 9 124 -1 184 2 184 9 0 7 3 7 8 0 4 -8 41 -11
105 -10 64 2 97 -1 97 -8 0 -8 3 -8 8 -1 8 12 27 13 37 3 4 -4 16 -3 26 2 11
6 27 7 42 1 14 -6 28 -7 31 -4 8 9 197 9 203 0 2 -4 13 -2 24 4 14 7 24 7 33
0 7 -6 16 -8 19 -5 12 12 57 12 57 1 0 -8 3 -8 8 -2 9 13 52 15 52 2 0 -5 7
-4 15 3 11 9 19 9 28 2 7 -6 18 -8 24 -4 14 9 167 7 182 -2 6 -4 11 -3 11 1 0
10 92 9 108 -1 6 -3 12 -1 14 5 2 7 12 7 29 0 18 -6 30 -6 37 1 6 6 12 6 16
-1 5 -8 13 -8 26 -1 12 7 27 7 45 0 14 -5 24 -6 21 -1 -6 10 64 9 80 -1 6 -4
14 -5 18 -1 10 11 55 12 62 2 3 -6 11 -6 17 -1 15 10 27 10 46 -2 10 -6 12 -5
7 2 -6 10 19 11 44 2 3 -2 10 -1 15 0 31 8 165 4 165 -5 0 -5 4 -4 9 4 5 8 16
11 25 8 9 -4 16 -1 16 6 0 8 4 6 10 -3 5 -8 10 -10 10 -4 0 5 10 10 23 11 12
0 34 3 49 6 16 3 29 1 32 -6 3 -8 5 -8 5 1 1 7 6 10 11 7 6 -3 10 -2 10 2 0 5
11 10 26 11 14 1 34 7 45 13 11 6 27 8 35 5 8 -3 12 -2 9 4 -3 5 10 12 30 16
19 3 35 10 35 14 0 8 49 25 63 22 4 -1 7 2 7 8 0 5 22 21 49 35 27 13 52 29
56 35 3 5 15 10 26 10 11 0 18 3 16 8 -3 4 1 13 9 20 8 7 14 9 14 5 0 -4 10 3
23 17 12 14 35 36 51 48 16 12 25 22 20 22 -5 0 5 13 21 28 38 36 75 80 75 90
0 4 10 18 23 32 26 28 25 27 33 57 4 13 10 23 14 23 4 0 11 12 15 27 3 15 11
31 16 34 6 3 11 13 13 21 1 9 8 24 16 34 9 11 10 15 3 10 -7 -4 -13 -2 -13 4
0 6 6 13 13 16 8 3 13 18 12 34 -1 17 2 30 7 30 4 0 7 3 7 8 -4 23 2 42 12 36
8 -4 8 0 0 15 -7 11 -8 21 -3 21 5 0 8 10 7 23 -1 12 5 28 14 35 9 8 10 11 4
7 -16 -7 -16 -4 -3 29 7 18 6 26 -1 26 -8 0 -7 5 1 15 7 8 8 15 3 15 -5 0 -9
9 -9 20 0 11 4 20 9 20 5 0 5 6 -2 13 -8 10 -7 17 1 25 8 8 8 12 1 12 -10 0
-10 41 1 59 3 5 2 11 -4 13 -5 1 -12 27 -15 56 -2 30 -8 59 -12 65 -4 6 -8 23
-9 37 -1 14 -9 42 -18 62 -9 21 -16 41 -16 44 0 4 -8 16 -17 27 -10 11 -12 17
-6 13 9 -5 11 -2 7 8 -3 9 -10 16 -15 16 -5 0 -9 4 -9 9 0 5 -10 30 -22 57
-12 27 -21 52 -20 57 1 4 -2 7 -6 7 -4 0 -14 16 -21 35 -7 19 -17 35 -22 35
-6 0 -8 4 -5 9 6 10 -22 72 -37 82 -5 4 -6 12 -2 19 5 9 4 11 -3 6 -7 -4 -12
0 -12 10 0 10 -8 26 -17 37 -13 15 -14 19 -3 13 8 -4 6 1 -6 11 -11 10 -19 24
-16 31 2 6 -1 12 -7 12 -6 0 -10 3 -9 8 2 9 -34 85 -45 93 -5 3 -10 12 -11 20
-2 8 -8 25 -13 39 -6 14 -8 30 -5 35 3 6 2 7 -3 3 -9 -8 -67 101 -60 112 3 4
-2 11 -11 14 -8 3 -12 10 -9 16 3 5 1 10 -5 10 -6 0 -8 4 -5 10 3 6 0 10 -7
10 -8 0 -14 9 -15 20 -1 11 -11 33 -22 49 -11 15 -18 31 -14 35 3 3 2 6 -4 6
-6 0 -14 7 -17 16 -4 10 -2 13 7 8 6 -4 2 4 -11 18 -12 13 -19 28 -15 31 3 4
1 7 -6 7 -8 0 -11 8 -8 20 3 11 1 18 -3 15 -8 -5 -34 52 -31 68 0 4 -4 7 -9 7
-6 0 -10 7 -10 15 0 8 -4 15 -10 15 -5 0 -9 3 -8 8 3 10 -32 83 -50 105 -8 9
-12 17 -7 17 4 0 2 7 -5 15 -6 8 -8 20 -4 27 4 7 4 10 -1 6 -4 -4 -14 0 -21
10 -9 13 -9 19 -1 24 8 5 5 8 -7 8 -11 0 -16 3 -13 7 4 3 0 17 -8 30 -9 13
-13 29 -9 35 4 7 3 8 -4 4 -7 -4 -12 -1 -12 8 0 9 -4 16 -10 16 -5 0 -9 3 -8
8 3 12 -55 132 -64 132 -4 0 -8 8 -8 17 0 9 -8 25 -17 36 -13 15 -14 19 -3 13
9 -5 8 -2 -2 7 -10 8 -15 17 -11 20 3 4 0 7 -7 7 -7 0 -11 3 -7 6 3 4 -1 13
-9 21 -8 8 -12 19 -9 24 4 5 1 9 -5 9 -6 0 -8 5 -5 10 3 6 1 10 -5 10 -6 0 -8
5 -5 10 3 6 -1 13 -10 16 -12 5 -13 9 -4 21 10 11 10 13 -1 11 -8 -2 -16 6
-18 17 -2 11 -9 23 -14 26 -5 3 -10 12 -11 20 -2 8 -6 20 -10 27 -5 6 -5 17
-2 22 3 6 -1 10 -10 10 -9 0 -14 4 -10 9 3 5 -2 16 -11 25 -8 9 -12 20 -9 26
3 5 1 10 -4 10 -6 0 -11 6 -11 14 0 7 -7 19 -15 26 -8 7 -12 16 -9 21 3 5 0 9
-5 9 -6 0 -11 7 -11 15 0 8 -4 15 -10 15 -5 0 -7 7 -4 15 4 8 1 15 -6 15 -6 0
-9 4 -6 9 4 5 3 11 -1 13 -7 2 -64 110 -68 128 -5 16 -35 76 -42 83 -4 5 -9
12 -9 15 -4 21 -30 72 -37 72 -4 0 -5 5 -2 10 3 6 2 10 -3 10 -4 0 -14 16 -22
35 -8 19 -18 35 -22 35 -5 0 -6 5 -3 10 3 6 0 17 -7 25 -32 36 -38 45 -29 45
6 0 -3 23 -19 50 -16 28 -26 50 -22 50 4 0 -2 7 -12 15 -11 8 -16 15 -11 15 4
0 0 10 -11 22 -10 12 -13 18 -5 13 10 -6 8 2 -5 21 -11 16 -29 46 -39 67 -11
20 -24 37 -28 37 -5 0 -7 9 -4 20 3 10 2 20 -2 22 -16 7 -48 64 -46 81 2 9 -1
15 -6 11 -5 -3 -9 2 -9 10 0 9 -5 16 -11 16 -6 0 -9 8 -7 18 2 9 -4 26 -14 36
-10 11 -18 26 -18 33 0 7 -5 13 -11 13 -5 0 -7 5 -4 10 3 6 1 10 -5 10 -7 0
-10 7 -6 15 3 8 2 15 -2 15 -8 0 -71 120 -71 134 1 5 -3 12 -8 15 -17 13 -83
152 -77 163 4 7 3 8 -4 4 -7 -4 -16 2 -22 16 -15 34 -47 81 -77 113 -7 8 -13
16 -13 18 0 13 -205 227 -217 227 -3 0 -21 11 -40 26 -18 14 -33 21 -33 17 0
-4 -4 -3 -8 3 -13 21 -145 94 -169 94 -7 0 -13 5 -13 11 0 5 -4 7 -10 4 -5 -3
-10 -1 -10 5 0 6 -4 8 -10 5 -5 -3 -10 -1 -10 5 0 6 -5 8 -10 5 -6 -4 -17 -2
-24 4 -7 6 -25 12 -40 13 -14 1 -26 5 -26 9 0 3 -11 5 -25 4 -14 -2 -27 1 -30
5 -3 5 -14 7 -25 5 -11 -2 -20 0 -20 6 0 5 -5 9 -11 9 -5 0 -7 -5 -3 -11 4 -8
1 -8 -12 -1 -11 5 -30 9 -44 8 -14 -1 -35 1 -47 6 -12 4 -25 3 -28 -2 -3 -6
-15 -6 -30 0 -15 6 -27 6 -30 -1 -4 -5 -11 -7 -16 -3 -6 3 -43 6 -84 6 -41 0
-78 -3 -84 -6 -5 -4 -12 -2 -16 4 -4 7 -14 6 -28 -2 -26 -13 -28 -13 -37 1 -3
6 -9 9 -12 6z m72 -265 c22 4 40 4 40 -1 0 -4 13 -4 29 1 15 4 34 4 41 0 6 -4
27 -4 46 0 21 5 34 4 34 -2 0 -6 5 -7 13 -2 11 8 32 10 47 4 17 -6 52 -5 56 2
3 4 14 3 25 -2 11 -6 24 -8 29 -5 6 3 10 1 10 -6 0 -7 11 -10 30 -7 18 3 31 0
34 -9 3 -7 12 -10 22 -6 11 4 15 2 11 -4 -4 -6 -1 -11 6 -10 30 1 48 -4 43
-11 -2 -4 3 -8 12 -9 32 -3 52 -9 64 -21 7 -7 15 -12 20 -12 7 0 72 -40 94
-59 5 -4 21 -14 35 -21 13 -7 37 -27 53 -44 16 -17 33 -30 38 -29 4 2 8 -1 8
-6 0 -4 17 -28 38 -51 20 -24 36 -47 35 -52 -2 -4 3 -8 11 -8 8 0 17 -8 21
-19 3 -10 14 -29 25 -41 11 -12 17 -26 15 -30 -3 -4 2 -11 11 -14 8 -3 13 -10
9 -15 -3 -6 3 -14 12 -20 10 -6 14 -11 10 -11 -4 0 6 -25 22 -55 17 -30 27
-55 23 -55 -4 0 -2 -4 3 -8 6 -4 28 -43 50 -87 21 -44 42 -82 47 -83 4 -2 6
-8 2 -13 -3 -5 0 -9 6 -9 6 0 8 -4 5 -10 -3 -5 -1 -10 6 -10 7 0 10 -3 6 -6
-3 -4 0 -13 8 -21 8 -8 15 -23 15 -34 0 -10 5 -19 11 -19 5 0 7 -4 4 -10 -3
-5 -1 -10 5 -10 6 0 9 -4 6 -9 -4 -5 -3 -11 1 -13 10 -4 46 -75 49 -95 1 -8
10 -23 18 -32 9 -10 13 -21 9 -24 -3 -4 -1 -7 6 -7 7 0 11 -6 9 -12 -3 -7 4
-21 13 -32 10 -10 16 -23 13 -28 -3 -4 0 -8 5 -8 6 0 11 -7 11 -15 0 -8 5 -15
12 -15 6 0 9 -3 5 -6 -3 -3 6 -26 19 -50 14 -24 21 -44 17 -44 -4 0 -3 -4 2
-8 6 -4 17 -20 25 -37 8 -16 19 -33 25 -37 6 -5 5 -8 -2 -8 -8 0 -5 -8 7 -20
12 -12 18 -24 16 -29 -3 -4 5 -18 19 -31 13 -12 21 -28 18 -36 -3 -7 2 -21 11
-30 9 -8 14 -19 11 -24 -3 -5 -2 -10 2 -12 12 -5 65 -108 56 -108 -4 0 0 -5
10 -11 9 -6 15 -14 12 -18 -2 -5 2 -14 10 -21 8 -7 12 -16 9 -21 -3 -5 0 -9 6
-9 6 0 9 -4 6 -9 -4 -5 -3 -11 2 -13 4 -1 23 -37 41 -78 19 -41 40 -83 48 -92
8 -9 12 -22 8 -27 -3 -6 -2 -11 3 -11 10 0 97 -170 94 -182 -1 -5 3 -8 9 -8 6
0 8 -7 5 -16 -3 -8 -2 -12 4 -9 9 5 15 -15 11 -37 0 -5 3 -8 8 -8 9 0 35 -58
32 -72 0 -5 3 -8 7 -8 10 0 37 -50 34 -62 -1 -5 3 -8 9 -8 5 0 7 -4 4 -10 -3
-5 -1 -10 4 -10 6 0 11 -7 11 -15 0 -8 5 -15 11 -15 5 0 8 -4 5 -9 -3 -5 1
-11 9 -15 8 -3 12 -12 9 -21 -4 -8 -1 -15 7 -15 7 0 9 -3 6 -7 -4 -3 5 -26 19
-50 14 -25 23 -51 20 -59 -3 -8 0 -13 7 -11 7 1 11 -6 9 -15 -2 -10 2 -18 7
-18 10 0 27 -39 23 -52 -1 -5 2 -8 6 -8 5 0 17 -19 28 -42 10 -24 24 -49 31
-56 7 -7 10 -19 7 -27 -4 -10 0 -15 10 -15 9 0 16 -6 15 -12 -3 -17 32 -88 43
-88 5 0 7 -4 4 -8 -3 -5 4 -25 14 -45 11 -21 17 -37 14 -37 -3 0 2 -7 10 -16
9 -8 19 -27 22 -42 4 -15 12 -34 19 -42 7 -8 29 -50 51 -92 21 -42 41 -75 45
-72 4 2 5 -4 2 -14 -2 -10 3 -24 11 -31 9 -8 16 -19 16 -26 0 -7 10 -25 22
-41 13 -15 17 -25 10 -20 -7 4 -4 -8 7 -27 11 -19 17 -38 14 -41 -4 -3 -1 -6
5 -6 6 0 14 -10 18 -22 3 -13 14 -32 23 -42 9 -11 10 -16 3 -12 -7 4 -1 -9 13
-30 14 -20 23 -39 20 -42 -2 -3 2 -10 11 -16 13 -10 20 -28 23 -59 1 -5 6 -5
13 -1 6 4 8 3 4 -4 -3 -6 -1 -16 6 -24 7 -7 15 -22 16 -33 2 -11 8 -25 14 -32
5 -7 6 -18 2 -24 -4 -7 -3 -10 2 -7 13 8 29 -13 29 -37 0 -11 5 -19 12 -18 7
2 10 -6 8 -17 -2 -11 1 -20 6 -20 6 0 7 -4 4 -10 -3 -5 -1 -10 6 -10 7 0 10
-3 6 -6 -3 -4 1 -13 9 -22 11 -11 12 -17 4 -22 -8 -5 -7 -9 4 -13 9 -4 16 -15
16 -25 0 -10 3 -22 8 -26 4 -4 8 -12 8 -17 1 -5 2 -10 4 -11 7 -9 5 -48 -2
-48 -5 0 -3 -7 6 -15 8 -9 15 -31 14 -49 -1 -18 2 -38 6 -44 4 -7 2 -12 -5
-12 -8 0 -9 -3 0 -13 6 -8 8 -17 4 -20 -3 -4 -7 -19 -8 -34 -4 -60 -5 -64 -16
-57 -8 5 -9 2 -1 -12 6 -11 7 -27 1 -41 -5 -13 -5 -23 -2 -23 4 0 2 -5 -5 -12
-7 -7 -12 -21 -12 -33 0 -11 -7 -30 -15 -41 -8 -12 -11 -24 -8 -28 3 -3 1 -6
-5 -6 -7 0 -11 -3 -10 -7 3 -18 -83 -165 -96 -163 -3 0 -6 -2 -6 -5 1 -9 -28
-35 -39 -35 -6 0 -7 -7 -4 -17 4 -10 2 -14 -5 -9 -6 3 -16 -3 -22 -15 -7 -11
-14 -18 -17 -15 -3 2 -16 -7 -28 -20 -13 -14 -27 -26 -32 -26 -11 -1 -57 -31
-65 -43 -4 -5 -8 -7 -8 -3 0 4 -12 1 -27 -7 -15 -8 -30 -12 -35 -9 -4 3 -8 1
-8 -5 0 -6 -16 -13 -35 -17 -19 -3 -35 -10 -35 -14 0 -5 -8 -7 -17 -5 -10 1
-22 0 -28 -4 -18 -10 -38 -13 -135 -17 -52 -2 -116 -6 -142 -8 -27 -1 -48 0
-48 3 0 8 -79 6 -86 -2 -3 -3 -17 -2 -30 3 -15 6 -26 6 -30 -1 -4 -7 -10 -7
-16 -1 -6 6 -22 7 -37 2 -14 -4 -34 -4 -43 -1 -9 3 -66 4 -125 1 -59 -3 -109
-3 -110 0 -4 7 -82 4 -89 -3 -3 -3 -17 -2 -30 3 -15 6 -26 6 -30 -1 -4 -7 -10
-7 -16 -1 -6 6 -22 7 -37 2 -14 -4 -34 -4 -43 -1 -9 3 -66 4 -125 1 -59 -3
-109 -3 -110 0 -4 7 -82 4 -89 -3 -3 -3 -17 -2 -30 3 -15 6 -26 6 -30 -1 -4
-7 -10 -7 -16 -1 -6 6 -22 7 -37 2 -14 -4 -34 -4 -43 -1 -9 3 -66 4 -125 1
-59 -3 -109 -3 -110 0 -4 7 -82 4 -89 -3 -3 -3 -17 -2 -30 3 -15 6 -26 6 -30
-1 -4 -7 -10 -7 -16 -1 -6 6 -22 7 -37 2 -14 -4 -35 -4 -46 0 -11 4 -31 3 -45
-2 -13 -5 -26 -6 -27 -1 -3 9 -80 9 -89 0 -3 -3 -17 -2 -30 3 -15 6 -26 6 -30
-1 -4 -7 -10 -7 -16 -1 -6 6 -22 7 -37 2 -14 -4 -34 -4 -43 -1 -9 3 -66 4
-125 1 -59 -3 -109 -3 -110 0 -4 7 -82 4 -89 -3 -3 -3 -19 -1 -35 3 -20 6 -29
5 -29 -3 0 -8 -3 -8 -11 0 -7 7 -21 8 -38 3 -14 -4 -34 -4 -43 -1 -9 3 -66 4
-125 1 -59 -3 -109 -3 -110 0 -4 7 -82 4 -89 -3 -3 -3 -17 -2 -30 3 -15 6 -26
6 -30 -1 -4 -7 -10 -7 -16 -1 -6 6 -22 7 -37 2 -14 -4 -34 -4 -43 -1 -9 3 -66
4 -125 1 -59 -3 -109 -3 -110 0 -4 7 -82 4 -89 -3 -3 -3 -19 -1 -35 3 -20 6
-29 5 -29 -3 0 -8 -3 -8 -11 0 -7 7 -21 8 -38 3 -14 -4 -34 -4 -43 -1 -9 3
-66 4 -125 1 -59 -3 -109 -3 -110 0 -4 7 -82 4 -89 -3 -3 -3 -17 -2 -30 3 -14
6 -26 6 -29 -1 -4 -5 -11 -6 -17 -3 -6 4 -27 8 -46 9 -20 1 -38 7 -40 14 -2 6
-8 8 -14 5 -12 -8 -101 16 -110 30 -4 6 -13 11 -20 12 -7 0 -26 7 -43 14 -16
7 -33 13 -37 12 -5 -1 -8 3 -8 9 0 5 -4 7 -10 4 -5 -3 -10 1 -10 10 0 9 -4 14
-9 11 -5 -3 -14 1 -21 9 -7 8 -18 15 -24 15 -12 1 -106 85 -106 95 0 3 -11 16
-25 29 -14 13 -25 28 -25 35 0 6 -4 11 -10 11 -5 0 -10 5 -10 11 0 7 -9 20
-20 29 -12 10 -20 22 -18 26 1 5 -9 32 -22 59 -13 28 -24 55 -24 60 -1 6 -7
20 -14 33 -9 15 -9 22 -1 22 6 0 3 14 -9 34 -12 21 -17 39 -11 47 4 7 3 19 -2
25 -7 8 -7 14 0 18 7 4 7 15 1 30 -5 13 -7 26 -5 28 2 2 5 38 6 81 1 42 6 77
10 77 5 0 6 6 3 14 -3 8 -1 17 5 20 6 4 8 13 4 21 -3 8 1 15 8 15 7 0 9 3 6 6
-3 4 -1 16 5 28 7 11 11 24 10 29 -1 4 3 7 10 7 6 0 8 3 5 6 -3 4 -1 16 5 28
7 11 11 24 10 29 -1 4 3 7 8 7 5 0 9 3 8 8 -4 12 24 72 31 68 4 -3 8 5 8 17 1
12 7 23 13 25 5 2 8 7 5 12 -3 5 2 16 11 24 8 9 12 16 8 16 -3 0 -1 6 5 13 6
8 8 17 4 20 -3 4 -1 7 5 7 7 0 12 9 12 20 0 11 3 20 8 20 4 0 13 9 20 21 8 12
9 18 3 14 -6 -3 1 15 17 42 15 26 34 64 42 83 8 19 24 55 37 79 13 24 23 50
23 57 0 8 5 14 12 14 6 0 9 3 5 6 -3 4 0 13 8 20 8 8 11 22 8 31 -4 11 -3 14
5 9 8 -5 12 0 12 13 0 12 5 21 10 21 6 0 10 9 10 20 0 11 4 20 10 20 5 0 9 3
9 8 -3 19 2 33 10 27 6 -3 13 10 17 30 3 19 10 35 14 35 8 0 21 39 17 53 -1 5
6 13 15 18 10 5 15 16 12 24 -4 8 -1 15 5 15 6 0 11 7 11 15 0 8 4 15 10 15 5
0 9 3 8 8 -1 4 3 18 9 32 6 14 11 29 11 33 1 4 8 15 17 23 8 9 13 20 10 25 -4
5 -1 9 4 9 6 0 11 9 11 21 0 11 4 18 8 15 5 -3 14 11 21 30 7 18 16 34 21 34
4 0 8 6 7 13 -1 18 26 77 35 77 4 0 8 8 8 17 0 9 8 25 18 36 9 11 11 17 3 12
-14 -8 13 39 38 65 9 9 10 15 3 18 -6 2 -2 12 9 23 11 11 17 24 14 28 -2 5 2
12 11 15 8 3 13 10 10 14 -3 5 5 24 17 43 11 19 21 36 22 39 0 3 15 33 33 68
17 34 28 62 24 62 -4 0 -2 4 3 8 6 4 17 16 25 26 13 18 13 19 0 11 -12 -7 -13
-6 -3 7 7 8 9 19 5 23 -4 5 -2 5 5 1 10 -5 26 21 28 46 0 4 7 16 15 26 8 10
16 25 18 33 2 8 11 23 20 33 10 11 11 16 4 12 -11 -7 -12 -4 -3 13 7 11 16 21
21 21 6 0 9 3 9 8 -3 20 2 32 13 26 7 -4 8 -3 4 5 -4 6 -2 18 4 26 7 8 9 15 4
15 -4 0 3 12 17 27 13 14 18 23 10 18 -16 -9 -8 7 18 39 13 16 13 18 1 11 -9
-5 -8 0 4 13 11 12 15 22 10 22 -5 0 -1 5 9 11 9 6 15 14 12 18 -2 5 2 14 10
21 8 7 15 21 15 31 0 11 5 19 10 19 6 0 9 3 8 8 -4 13 54 122 63 116 5 -3 6 2
3 11 -4 9 1 24 10 34 9 10 13 21 9 24 -3 4 -1 7 5 7 7 0 12 7 12 16 0 9 8 23
18 31 10 9 11 11 2 7 -10 -5 -8 1 5 16 11 13 14 20 7 16 -11 -7 -11 -4 0 15 7
13 19 29 26 37 7 7 10 18 7 23 -4 5 -2 9 2 9 5 0 15 17 22 38 8 20 17 39 20
42 8 7 54 104 51 109 -1 2 2 7 7 10 11 8 59 113 56 123 -2 4 2 8 7 8 6 0 10 9
10 19 0 11 4 21 8 23 9 3 50 87 50 102 0 5 5 12 12 16 6 4 12 13 13 21 2 8 7
21 12 29 5 8 10 20 10 25 1 6 6 9 13 8 6 -2 9 4 5 13 -3 9 -2 19 3 23 12 8 68
127 65 137 -2 4 1 10 6 13 15 11 43 60 43 76 0 8 4 15 9 15 5 0 14 12 19 28
11 29 32 60 74 104 14 15 24 28 21 28 -3 0 4 8 15 19 12 10 22 22 22 26 0 14
78 83 143 127 34 23 63 45 65 49 2 4 10 5 18 2 9 -3 14 0 12 8 -2 9 4 13 15
11 9 -2 17 1 17 6 0 11 68 35 80 27 6 -4 9 -1 8 7 -2 7 5 12 15 12 9 -1 17 2
17 7 0 5 7 6 15 3 8 -4 15 -1 15 6 0 7 7 10 15 7 8 -4 17 -2 20 3 4 7 13 6 25
0 13 -7 21 -7 26 2 5 7 2 8 -7 3 -10 -5 -11 -5 -4 3 11 12 78 21 83 11 1 -3
21 -3 42 1z"/>
<path d="M4894 6903 c6 -12 -5 -18 -26 -14 -5 0 -8 -4 -8 -11 0 -9 -3 -9 -11
-1 -11 11 -17 11 -54 -3 -27 -10 -37 -13 -56 -17 -35 -7 -124 -119 -115 -143
3 -9 10 -12 16 -9 5 3 10 1 10 -5 0 -6 5 -8 13 -3 15 9 117 11 117 1 0 -8 27
-4 36 5 4 3 14 3 23 -2 9 -4 23 -7 31 -6 8 0 18 -4 22 -10 5 -6 8 -4 8 4 0 11
4 9 15 -5 10 -13 14 -14 15 -5 0 11 3 11 15 1 8 -7 15 -10 15 -6 0 4 14 0 30
-9 17 -9 30 -12 30 -9 0 4 8 0 18 -8 16 -14 42 -26 52 -25 8 1 55 -47 79 -82
12 -17 19 -31 14 -31 -4 0 -3 -4 3 -8 12 -8 49 -84 46 -94 -1 -5 2 -8 8 -8 6
0 10 -7 10 -15 0 -8 5 -15 11 -15 5 0 8 -4 5 -9 -3 -5 4 -20 15 -35 11 -14 17
-26 14 -26 -4 0 0 -11 9 -25 9 -14 14 -25 12 -25 -3 0 15 -38 39 -85 25 -47
42 -85 39 -85 -3 0 2 -7 10 -16 9 -8 16 -24 16 -33 0 -10 7 -24 15 -31 8 -7
15 -21 15 -31 0 -11 4 -19 9 -19 9 0 37 -60 33 -72 -1 -5 3 -8 8 -8 6 0 10 -9
10 -20 0 -11 5 -20 11 -20 5 0 7 -4 4 -10 -3 -5 -2 -10 3 -10 9 0 27 -47 24
-62 -1 -5 2 -8 7 -8 5 0 14 -13 21 -30 7 -16 16 -30 21 -30 5 0 6 -7 3 -15 -4
-8 -1 -15 6 -15 7 0 10 -6 7 -14 -3 -8 1 -17 9 -20 8 -3 14 -9 13 -13 -2 -16
14 -53 23 -53 5 0 6 -4 3 -10 -3 -5 -1 -10 6 -10 7 0 10 -3 6 -6 -3 -4 1 -13
9 -21 8 -8 12 -19 9 -24 -4 -5 -1 -9 4 -9 6 0 11 -9 11 -20 0 -11 5 -20 11
-20 5 0 7 -4 4 -10 -3 -5 -1 -10 5 -10 7 0 10 -6 7 -14 -3 -8 -1 -16 4 -18 5
-2 11 -13 12 -25 0 -12 3 -20 5 -18 6 5 57 -98 54 -107 -1 -5 2 -8 6 -8 5 0
15 -18 22 -40 7 -21 17 -37 21 -34 5 3 9 -2 9 -11 0 -17 20 -56 33 -66 5 -3 8
-10 8 -15 -1 -17 10 -44 19 -44 4 0 11 -7 14 -16 3 -8 2 -12 -4 -9 -6 3 -7 -1
-4 -9 3 -9 10 -16 15 -16 5 0 8 -3 7 -7 -1 -5 3 -19 9 -33 6 -14 10 -28 9 -31
0 -3 7 -13 17 -23 9 -10 14 -22 11 -28 -4 -7 -2 -8 4 -4 7 4 13 2 13 -3 2 -12
5 -26 9 -38 1 -5 2 -11 1 -15 0 -5 3 -8 8 -8 8 0 34 -58 31 -68 -1 -2 9 -12
21 -23 12 -10 19 -19 15 -19 -3 0 0 -13 8 -29 9 -16 12 -32 8 -36 -4 -5 1 -5
10 -2 12 4 15 2 12 -8 -3 -7 0 -24 7 -37 7 -13 12 -26 11 -30 -1 -5 3 -8 9 -8
5 0 7 -4 4 -10 -3 -5 -1 -10 5 -10 6 0 8 -4 5 -10 -3 -5 -1 -10 5 -10 7 0 9
-7 6 -17 -4 -10 -4 -14 0 -10 8 7 69 -110 66 -125 -1 -5 2 -8 6 -8 10 0 37
-51 34 -63 -1 -4 4 -15 13 -23 8 -9 15 -22 15 -30 0 -8 4 -14 10 -14 5 0 7 -7
4 -15 -4 -8 -1 -15 6 -15 8 0 11 -9 8 -24 -4 -18 -1 -23 10 -18 10 3 13 1 8
-6 -4 -7 -2 -12 4 -12 6 0 8 -5 5 -10 -3 -6 -1 -10 5 -10 6 0 9 -4 6 -9 -3 -5
1 -14 9 -21 8 -7 13 -16 10 -20 -3 -5 1 -15 9 -23 8 -8 12 -17 9 -21 -4 -3 -1
-6 5 -6 7 0 11 -3 10 -7 -3 -16 22 -63 33 -63 9 0 9 -3 0 -14 -9 -10 -8 -15 4
-20 8 -3 15 -12 15 -21 0 -8 5 -15 11 -15 5 0 7 -4 4 -10 -3 -6 -1 -10 5 -10
6 0 8 -4 5 -10 -3 -6 -1 -10 4 -10 6 0 10 -3 9 -7 -1 -5 3 -18 10 -29 6 -12 8
-24 5 -28 -3 -3 -2 -6 4 -6 6 0 13 -9 16 -20 3 -11 6 -24 7 -28 1 -4 11 -19
21 -34 10 -14 19 -33 19 -41 0 -8 7 -17 15 -21 8 -3 15 -14 15 -23 0 -10 7
-29 16 -41 8 -12 12 -22 8 -22 -4 0 2 -8 13 -17 11 -10 18 -24 16 -30 -3 -7 0
-13 7 -13 6 0 9 -4 5 -9 -3 -5 1 -15 8 -23 7 -7 12 -20 12 -28 -1 -8 3 -23 7
-32 6 -12 5 -18 -2 -18 -6 0 -8 -5 -5 -10 3 -6 -1 -13 -9 -16 -9 -3 -14 -9
-12 -13 7 -10 -36 -7 -53 3 -10 6 -12 5 -7 -2 4 -6 -11 -2 -33 10 -22 12 -38
24 -36 28 2 4 -7 13 -20 20 -14 7 -25 16 -25 20 0 3 -20 27 -45 53 -24 26 -42
47 -38 47 3 0 -6 10 -20 23 -15 12 -27 26 -27 31 0 4 -16 23 -35 42 -19 18
-35 37 -36 41 0 5 -30 41 -67 82 -95 104 -122 131 -133 131 -5 0 -9 6 -9 14 0
8 -8 17 -19 21 -16 5 -32 16 -78 55 -7 6 -13 8 -13 4 0 -4 -8 -1 -17 7 -10 8
-30 21 -45 28 -15 8 -25 19 -21 24 3 6 2 7 -4 4 -13 -8 -83 17 -94 34 -7 12
-9 12 -9 0 0 -10 -8 -7 -27 10 -14 13 -23 18 -18 10 6 -11 4 -13 -11 -7 -10 4
-28 10 -39 12 -11 2 -21 8 -23 13 -2 5 -12 7 -23 4 -10 -3 -27 1 -36 8 -10 9
-14 9 -10 2 5 -8 -1 -8 -20 2 -16 9 -31 11 -37 5 -5 -5 -18 -5 -31 0 -13 5
-25 6 -28 4 -3 -3 -15 0 -27 6 -15 8 -20 8 -16 1 4 -6 2 -11 -3 -11 -6 0 -11
4 -11 8 0 5 -16 8 -35 7 -19 -1 -35 2 -35 8 0 5 -5 5 -13 -2 -10 -8 -17 -7
-25 1 -9 9 -12 9 -12 -1 0 -7 -5 -9 -11 -6 -15 10 -89 12 -89 3 0 -4 -10 -4
-22 0 -25 8 -86 7 -95 -2 -3 -3 -14 -1 -24 5 -13 6 -19 6 -19 0 0 -7 -9 -7
-26 -1 -18 7 -23 7 -18 -1 4 -8 0 -8 -15 0 -14 8 -21 8 -21 1 0 -8 -6 -8 -20
0 -11 6 -20 7 -20 2 0 -10 -61 -9 -78 1 -6 4 -13 3 -17 -3 -4 -7 -12 -7 -26 0
-12 7 -19 7 -19 1 0 -7 -8 -7 -22 -2 -13 5 -33 5 -45 0 -14 -5 -23 -5 -23 2 0
6 -7 6 -20 -1 -15 -8 -20 -8 -20 1 0 8 -4 8 -15 -1 -10 -8 -15 -9 -15 -1 0 7
-8 8 -25 1 -14 -5 -25 -6 -25 -3 0 4 -5 2 -12 -5 -7 -7 -19 -12 -28 -12 -22 0
-76 -62 -92 -105 -6 -19 -16 -35 -21 -35 -4 0 -6 -4 -3 -9 7 -10 -16 -61 -27
-61 -5 0 -6 -4 -3 -9 3 -5 -3 -19 -13 -32 -10 -13 -16 -30 -14 -36 3 -7 -3
-20 -11 -29 -9 -8 -16 -20 -16 -25 0 -15 43 -28 57 -17 7 6 14 5 18 -2 4 -7
12 -7 26 0 12 7 19 7 19 1 0 -6 11 -6 29 -1 15 4 34 4 42 -1 8 -5 16 -3 21 4
5 9 10 9 19 0 8 -8 18 -9 31 -2 11 6 18 6 18 0 0 -6 12 -6 32 0 21 6 34 5 36
0 2 -6 12 -7 28 -1 15 6 24 6 24 -1 0 -6 7 -6 20 1 12 6 20 7 20 1 0 -6 11 -6
29 -1 19 5 33 4 40 -3 6 -6 11 -7 11 -1 0 5 9 10 20 10 11 0 20 -4 20 -8 0 -5
9 -4 20 2 12 6 20 7 20 1 0 -6 11 -6 29 -1 15 4 34 4 42 -1 8 -5 16 -3 21 4 5
9 10 9 19 0 8 -8 18 -9 31 -2 11 6 18 6 18 0 0 -6 11 -6 29 -1 15 4 34 4 42
-1 8 -5 16 -3 21 4 5 9 10 9 19 0 8 -8 18 -9 31 -2 11 6 18 6 18 0 0 -6 11 -6
29 -1 16 4 32 6 34 4 2 -3 32 -5 65 -6 34 -1 59 -5 57 -9 -3 -4 2 -9 10 -13 8
-3 17 -1 20 4 4 7 13 6 25 0 25 -13 33 -13 24 3 -4 6 1 5 12 -4 18 -15 31 -18
77 -20 9 0 17 -4 17 -8 0 -4 6 -8 13 -8 6 0 33 -10 59 -21 26 -12 52 -22 57
-22 6 0 11 -7 11 -16 0 -10 5 -14 15 -10 9 3 18 -1 21 -9 4 -8 13 -15 21 -15
8 0 11 -4 8 -10 -3 -6 1 -10 10 -10 9 0 13 -5 9 -11 -4 -7 -1 -10 6 -7 14 4
57 -31 53 -44 -2 -4 6 -10 17 -13 11 -4 20 -9 20 -13 0 -4 18 -26 40 -50 22
-23 38 -42 35 -42 -3 0 12 -18 34 -40 22 -22 43 -49 46 -60 4 -11 14 -20 22
-20 9 0 14 -2 11 -5 -3 -3 9 -21 26 -39 99 -106 145 -152 162 -164 36 -24 102
-52 128 -54 14 -1 26 -6 26 -11 0 -5 6 -5 13 1 8 7 18 7 27 2 9 -5 19 -5 27 2
7 6 13 6 13 1 0 -5 36 -9 80 -9 44 0 80 4 80 9 0 4 7 4 16 -1 11 -6 26 -5 43
4 14 8 36 14 49 14 13 0 20 4 17 10 -3 6 2 10 12 10 11 0 24 5 31 12 7 7 12 9
12 5 0 -4 13 6 30 23 16 16 34 30 40 30 5 0 10 7 10 15 0 8 4 15 9 15 5 0 13
9 16 20 4 11 10 18 14 16 4 -3 8 0 9 7 2 22 8 42 20 63 6 12 13 36 14 53 1 20
8 31 18 32 8 0 10 3 4 5 -10 4 -9 72 1 82 2 3 -3 18 -11 34 -8 16 -12 33 -9
38 3 5 1 11 -4 15 -5 3 -8 14 -6 25 2 11 -2 20 -8 20 -11 0 -16 13 -19 58 -1
6 -4 12 -8 12 -3 0 -12 16 -20 35 -8 19 -18 35 -24 35 -5 0 -7 3 -3 6 3 4 -1
13 -9 21 -8 8 -12 19 -9 24 4 5 1 9 -6 9 -7 0 -9 3 -6 6 3 4 1 16 -5 28 -12
21 -14 27 -17 47 0 5 -5 8 -9 5 -5 -3 -9 1 -10 9 -1 8 -3 22 -4 30 -1 8 -4 15
-8 15 -4 0 -22 31 -39 70 -18 38 -36 72 -41 75 -5 3 -7 12 -3 20 3 8 1 15 -5
15 -10 0 -68 119 -64 133 1 4 -3 7 -9 7 -5 0 -7 5 -4 10 3 6 1 10 -5 10 -6 0
-8 5 -5 10 3 6 1 10 -4 10 -6 0 -10 3 -9 8 3 12 -33 82 -43 82 -5 0 -8 4 -7 8
5 13 -25 82 -34 82 -5 0 -7 4 -3 9 3 5 1 12 -5 16 -6 4 -8 11 -5 16 4 5 -1 12
-9 15 -9 3 -16 14 -16 24 0 10 -7 23 -15 30 -8 7 -15 16 -15 21 0 4 -5 20 -12
36 -6 15 -12 30 -13 33 0 3 -11 24 -23 48 -12 23 -20 42 -17 42 3 0 -3 10 -14
22 -11 11 -18 25 -15 29 2 4 0 10 -6 14 -6 4 -8 10 -5 15 3 4 -2 11 -11 14 -9
3 -14 13 -11 20 3 8 -1 17 -10 20 -9 4 -13 9 -11 12 3 3 -5 24 -18 47 -13 23
-31 59 -40 80 -9 20 -20 37 -26 37 -5 0 -7 4 -4 8 3 5 -1 20 -9 35 -7 14 -11
28 -7 31 3 3 0 6 -7 6 -7 0 -10 4 -7 9 4 5 2 11 -3 13 -5 1 -11 10 -13 18 -2
8 -9 21 -16 28 -7 8 -10 17 -7 22 3 5 1 10 -4 12 -5 1 -11 10 -13 18 -2 8 -9
21 -16 28 -7 8 -10 17 -7 22 3 4 -2 13 -10 20 -8 7 -15 17 -15 22 0 5 -16 37
-35 69 -19 33 -29 57 -23 53 7 -4 5 1 -4 12 -9 10 -20 31 -23 47 -4 15 -11 27
-17 27 -5 0 -6 5 -3 10 3 6 -1 13 -9 16 -9 3 -13 10 -10 15 3 5 -4 21 -15 35
-11 15 -18 30 -15 35 3 5 0 9 -5 9 -6 0 -11 9 -11 20 0 11 -3 20 -7 20 -5 0
-21 29 -38 65 -16 36 -34 65 -38 65 -5 0 -5 5 -2 10 3 6 1 10 -4 10 -6 0 -11
6 -11 14 0 8 -24 61 -54 119 -30 58 -52 108 -49 111 4 3 2 6 -4 6 -9 0 -36 57
-32 69 0 2 -4 7 -9 10 -6 3 -12 13 -14 21 -3 14 -7 20 -36 54 -7 9 -11 19 -10
23 1 4 -5 22 -15 39 -9 17 -13 34 -10 38 4 3 1 6 -6 6 -8 0 -11 7 -7 15 3 8 1
15 -4 15 -14 0 -42 59 -34 72 4 6 3 8 -3 5 -13 -8 -26 20 -16 36 3 7 3 9 -2 5
-9 -8 -45 53 -38 65 2 4 -1 7 -7 7 -9 0 -20 19 -31 55 -1 6 -9 16 -16 24 -8 7
-12 19 -9 26 2 6 -4 18 -14 25 -11 8 -17 17 -14 22 3 4 0 8 -7 8 -7 0 -10 2
-7 5 7 8 -48 64 -92 95 -19 13 -37 27 -40 30 -8 10 -111 51 -131 53 -10 1 -19
4 -19 8 0 3 -11 4 -25 1 -14 -2 -25 0 -25 5 0 5 -15 10 -32 11 -74 3 -202 1
-210 -4 -5 -3 -16 0 -25 8 -12 9 -15 9 -9 1z"/>
<path d="M4716 6481 c-4 -7 -14 -10 -22 -7 -8 3 -14 2 -14 -3 0 -5 -11 -9 -25
-10 -48 -3 -55 -4 -55 -13 0 -5 -4 -7 -8 -4 -5 3 -22 -4 -40 -14 -22 -14 -32
-16 -36 -7 -2 7 -5 4 -5 -5 -1 -10 -7 -18 -13 -18 -7 0 -26 -10 -42 -23 -41
-32 -136 -127 -136 -136 0 -4 -11 -21 -25 -37 -14 -16 -25 -35 -25 -41 0 -7
-5 -13 -12 -13 -6 0 -9 -3 -5 -6 3 -3 -5 -23 -18 -44 -13 -21 -21 -41 -18 -44
4 -3 -1 -6 -10 -6 -11 0 -14 -5 -10 -16 3 -9 2 -19 -3 -23 -6 -3 -21 -29 -34
-58 -13 -28 -27 -50 -32 -47 -4 2 -5 -4 -3 -15 2 -11 -2 -25 -10 -31 -7 -6
-23 -37 -35 -70 -12 -33 -26 -60 -30 -60 -4 0 -11 -7 -14 -16 -4 -9 -2 -13 5
-8 12 7 -18 -43 -38 -64 -17 -17 -17 -25 0 -16 6 4 4 -2 -5 -13 -10 -11 -18
-27 -18 -37 0 -9 -4 -14 -10 -11 -5 3 -10 -3 -10 -14 0 -12 -4 -21 -8 -21 -9
0 -36 -59 -35 -77 1 -7 -3 -13 -8 -13 -5 0 -9 -7 -9 -15 0 -8 -5 -15 -12 -15
-6 0 -8 -3 -5 -6 3 -4 0 -16 -8 -28 -8 -11 -15 -28 -15 -38 0 -10 -3 -18 -7
-18 -9 0 -33 -49 -33 -67 0 -7 -3 -13 -7 -13 -5 0 -19 -28 -33 -61 -14 -34
-31 -63 -37 -66 -7 -3 -10 -9 -7 -15 3 -5 -2 -18 -13 -30 -10 -11 -18 -23 -18
-27 0 -3 -3 -5 -7 -4 -4 2 -5 -4 -1 -12 3 -9 -2 -24 -11 -34 -9 -10 -13 -21
-10 -24 4 -4 -1 -9 -10 -13 -9 -3 -13 -11 -9 -17 3 -5 -2 -16 -12 -24 -14 -9
-15 -13 -4 -13 12 -1 12 -2 -1 -13 -8 -7 -16 -18 -18 -25 -5 -27 -40 -81 -47
-74 -5 4 -5 2 -1 -5 6 -12 -34 -102 -60 -133 -13 -15 -14 -19 -14 -46 0 -8 -4
-12 -10 -9 -5 3 -10 -3 -10 -15 0 -11 -7 -23 -15 -26 -8 -4 -12 -10 -9 -15 3
-6 0 -17 -7 -25 -6 -8 -9 -17 -6 -20 3 -4 -3 -15 -13 -27 -11 -11 -17 -24 -14
-29 3 -4 1 -8 -3 -8 -8 0 -35 -58 -32 -69 0 -2 -3 -7 -8 -10 -11 -8 -48 -84
-45 -93 1 -5 -3 -8 -9 -8 -5 0 -7 -4 -4 -10 3 -5 2 -10 -4 -10 -5 0 -15 -16
-22 -35 -7 -19 -17 -35 -23 -35 -5 0 -6 -3 -3 -7 4 -3 0 -17 -9 -31 -8 -13
-13 -26 -10 -29 8 -8 -18 -31 -29 -25 -5 3 -4 -2 4 -11 8 -11 9 -17 2 -17 -6
0 -13 -11 -17 -25 -3 -14 -10 -25 -15 -25 -5 0 -8 -3 -7 -7 2 -12 -33 -87 -44
-94 -5 -3 -10 -10 -11 -15 -1 -18 -51 -119 -61 -126 -6 -4 -7 -10 -4 -14 4 -4
-1 -19 -12 -34 -11 -15 -17 -30 -13 -34 3 -3 1 -6 -5 -6 -7 0 -11 -3 -10 -7 2
-11 -25 -67 -37 -75 -5 -4 -6 -8 -2 -8 4 0 2 -10 -5 -22 -7 -13 -13 -25 -13
-28 -1 -3 -11 -24 -23 -47 -12 -23 -23 -51 -25 -62 -2 -10 -7 -25 -13 -33 -10
-13 -11 -141 -1 -191 3 -16 11 -35 18 -43 6 -8 8 -14 4 -14 -4 0 -2 -6 4 -13
6 -8 10 -16 8 -18 -1 -2 0 -3 2 -2 2 2 14 -8 25 -20 16 -17 28 -21 46 -17 14
4 31 2 38 -3 7 -6 12 -6 10 -1 -2 5 0 9 3 9 4 0 16 8 26 18 11 9 23 14 26 10
4 -3 7 1 7 11 0 9 5 14 10 11 6 -3 10 -1 10 5 0 6 5 8 10 5 6 -3 10 1 10 9 0
9 7 16 16 16 8 0 13 4 10 9 -4 5 -2 11 2 13 5 1 26 32 48 68 21 36 42 67 47
68 4 2 7 10 7 18 0 16 20 56 33 65 5 3 9 10 9 15 2 23 11 44 19 44 5 0 8 3 7
8 -1 4 18 48 44 99 25 51 41 90 36 87 -5 -4 -4 3 4 15 7 12 16 21 21 21 4 0 5
5 2 10 -3 6 -1 10 6 10 7 0 9 3 6 7 -4 3 -2 12 4 20 6 7 8 13 3 13 -5 0 -2 5
6 10 8 5 15 13 15 17 1 16 100 208 114 219 8 6 11 16 7 22 -3 5 -2 12 3 14 5
1 11 12 13 23 1 11 10 26 18 33 13 12 13 13 0 6 -8 -4 -5 4 7 17 12 13 22 29
23 34 1 23 12 45 21 45 6 0 8 4 4 9 -3 5 0 15 7 23 7 7 14 20 16 28 2 7 13 27
25 44 12 17 15 26 6 21 -14 -9 18 34 36 47 6 5 4 8 -5 8 -11 1 -9 6 8 19 13
12 20 25 16 35 -3 9 -2 16 4 16 5 0 13 11 16 25 4 16 11 23 18 19 6 -4 8 -3 4
4 -7 12 13 62 26 62 5 0 7 4 4 8 -3 5 4 23 15 41 11 18 17 36 14 41 -3 4 2 11
11 14 9 4 14 13 10 21 -3 8 -1 15 4 15 5 0 12 9 15 20 4 11 11 17 17 14 7 -4
8 -2 4 4 -4 6 4 31 18 56 13 24 22 47 19 50 -4 3 -1 6 5 6 7 0 12 6 12 14 0 8
7 22 16 30 12 12 12 16 2 16 -9 1 -7 5 4 14 10 7 15 16 11 19 -3 4 -1 7 5 7 7
0 11 3 10 8 -4 14 13 52 24 52 5 0 8 6 5 14 -3 8 1 20 9 26 8 7 14 18 14 24 0
6 12 29 26 50 15 21 20 36 13 32 -8 -4 -6 -1 3 7 10 8 15 17 11 20 -3 4 -1 7
5 7 7 0 11 3 11 8 -3 20 2 32 13 26 6 -4 8 -3 5 3 -8 13 28 84 38 75 5 -4 5
-2 2 4 -9 16 24 95 36 87 6 -4 8 0 4 10 -3 9 -2 19 4 22 5 4 7 10 4 15 -3 5 5
16 17 24 12 9 17 16 9 16 -8 0 -6 9 8 26 11 15 18 30 15 35 -3 5 -1 9 4 9 5 0
15 15 22 33 7 17 20 38 28 45 9 7 11 12 4 12 -6 0 -9 7 -6 15 4 8 10 12 15 9
5 -3 9 4 9 15 0 12 5 21 10 21 6 0 9 3 8 8 -4 13 26 82 35 82 5 0 7 9 4 20 -3
11 -1 18 3 15 5 -3 14 11 20 30 6 19 16 35 21 35 5 0 8 3 7 8 -4 15 14 52 23
46 5 -3 8 -2 7 3 -4 15 23 83 34 83 6 0 8 7 4 15 -3 8 0 15 6 15 6 0 9 3 6 6
-4 3 11 23 33 43 29 29 45 37 64 33 14 -2 25 -7 25 -11 0 -4 9 -17 20 -29 12
-12 18 -22 14 -22 -3 0 -1 -7 6 -15 7 -8 9 -15 6 -15 -4 0 0 -7 9 -16 9 -9 14
-23 11 -30 -3 -8 -1 -14 4 -14 8 0 26 -41 21 -48 -1 -1 5 -10 14 -18 8 -9 13
-20 10 -25 -4 -5 1 -9 9 -9 9 0 13 -6 10 -14 -3 -8 1 -20 9 -27 8 -7 12 -21 9
-31 -2 -10 1 -18 7 -18 6 0 11 -6 11 -14 0 -8 7 -22 16 -30 12 -12 12 -16 2
-16 -8 0 -9 -3 -3 -8 6 -4 17 -16 25 -26 13 -18 13 -19 0 -12 -8 4 -5 -2 8
-13 13 -11 23 -22 22 -25 -2 -27 2 -36 11 -30 7 4 10 1 7 -7 -3 -8 13 -47 34
-87 21 -40 36 -77 33 -82 -3 -6 -1 -10 5 -10 10 0 30 -38 36 -70 2 -8 8 -16
14 -18 5 -2 8 -7 5 -12 -3 -5 2 -15 11 -24 8 -9 12 -20 9 -26 -3 -5 -1 -10 5
-10 6 0 8 -5 5 -10 -3 -6 1 -13 9 -16 9 -3 14 -10 11 -14 -3 -5 -1 -11 5 -15
6 -4 8 -11 5 -16 -4 -5 -1 -9 5 -9 6 0 8 -4 5 -10 -3 -5 1 -10 11 -10 13 0 14
-3 4 -15 -7 -8 -8 -15 -3 -15 5 0 17 -13 26 -30 10 -16 16 -30 13 -30 -3 0 2
-10 12 -21 30 -37 97 -101 104 -99 2 1 38 -13 68 -26 3 -1 15 -5 28 -9 12 -4
22 -11 22 -16 0 -5 6 -6 14 -3 8 3 25 0 38 -7 13 -7 26 -14 31 -15 4 -1 10 -3
15 -4 4 -1 10 -2 15 -1 4 0 7 -4 7 -10 0 -5 4 -7 10 -4 5 3 20 0 32 -7 35 -19
83 -35 95 -31 12 4 5 53 -9 53 -5 0 -6 5 -3 10 3 6 1 10 -4 10 -6 0 -10 3 -9
8 4 12 -24 72 -33 72 -5 0 -6 7 -3 15 4 8 2 15 -3 15 -6 0 -16 18 -23 40 -7
22 -16 40 -19 40 -6 0 -26 46 -28 64 -1 5 -5 12 -10 15 -15 11 -63 113 -57
122 3 5 -3 9 -12 9 -10 0 -15 3 -11 6 3 4 0 19 -8 34 -8 15 -11 30 -8 34 4 3
1 6 -5 6 -6 0 -14 10 -18 23 -4 12 -18 39 -31 61 -14 21 -19 35 -11 31 7 -3 5
0 -6 9 -10 8 -15 20 -10 27 4 7 3 10 -2 6 -9 -5 -57 84 -54 99 1 4 -4 10 -12
15 -7 5 -14 12 -14 16 -3 21 -29 73 -37 73 -4 0 -5 5 -2 10 3 6 0 10 -7 10 -9
0 -9 3 2 10 9 6 10 10 3 10 -7 0 -27 32 -44 70 -18 39 -36 70 -41 70 -4 0 -8
8 -8 19 0 10 -7 24 -15 31 -8 7 -13 16 -10 20 3 4 -5 20 -17 36 -13 15 -17 25
-10 20 6 -4 12 -3 12 1 0 5 -9 14 -20 21 -12 7 -18 17 -15 22 3 6 1 10 -6 10
-7 0 -9 3 -6 7 4 3 0 17 -9 31 -8 13 -13 26 -10 29 3 4 -3 12 -14 20 -11 8
-20 23 -20 34 0 10 -6 19 -12 19 -9 0 -8 4 2 10 9 6 10 10 3 10 -7 0 -24 27
-40 60 -15 33 -31 60 -36 60 -4 0 -5 5 -2 10 3 6 1 10 -4 10 -6 0 -11 6 -11
13 0 16 -90 66 -124 69 -14 1 -26 5 -26 8 0 7 -66 4 -78 -4 -6 -3 -12 -1 -14
6 -3 9 -6 9 -12 -1z"/>
<path d="M4680 5632 c0 -12 -4 -22 -10 -22 -5 0 -10 -6 -10 -14 0 -8 -7 -22
-16 -30 -8 -9 -13 -16 -9 -16 3 0 -1 -10 -10 -23 -8 -13 -12 -27 -8 -30 3 -4
1 -7 -5 -7 -6 0 -13 -13 -17 -30 -4 -16 -14 -34 -23 -40 -9 -5 -13 -10 -8 -10
5 0 3 -7 -4 -15 -6 -8 -9 -19 -5 -25 3 -5 1 -10 -4 -10 -6 0 -11 -7 -11 -15 0
-8 -5 -15 -12 -15 -6 0 -8 -3 -5 -6 4 -4 -2 -19 -13 -34 -11 -15 -17 -30 -13
-34 3 -3 0 -6 -7 -6 -7 0 -10 -3 -7 -7 4 -3 2 -12 -4 -20 -6 -7 -8 -13 -3 -13
4 0 -1 -7 -12 -16 -10 -8 -13 -13 -7 -9 14 6 -15 -55 -31 -66 -5 -4 -6 -11 -2
-17 3 -5 -1 -13 -9 -16 -8 -3 -14 -9 -13 -13 1 -4 -3 -18 -10 -30 -7 -13 -9
-23 -5 -23 4 0 -2 -7 -13 -15 -10 -8 -15 -15 -10 -15 5 0 1 -9 -9 -20 -10 -11
-15 -20 -11 -20 3 0 0 -10 -9 -23 -8 -13 -12 -27 -8 -30 3 -4 2 -7 -4 -7 -6 0
-21 -25 -34 -55 -12 -30 -27 -51 -32 -48 -6 3 -7 1 -3 -5 7 -12 -13 -63 -29
-74 -6 -5 -6 -8 0 -8 7 0 7 -3 0 -8 -17 -12 -36 -52 -30 -63 4 -5 1 -8 -7 -7
-8 2 -12 -4 -10 -14 2 -10 -2 -18 -8 -18 -5 0 -10 -9 -10 -20 0 -11 -4 -20 -9
-20 -5 0 -12 -13 -16 -29 -3 -16 -13 -35 -21 -42 -8 -6 -14 -17 -14 -25 0 -7
-7 -20 -16 -28 -8 -9 -13 -16 -9 -16 3 0 -1 -13 -9 -29 -9 -16 -12 -31 -9 -35
4 -3 2 -6 -4 -6 -5 0 -18 -20 -29 -45 -10 -25 -22 -45 -27 -45 -5 0 -7 -6 -4
-14 3 -8 -1 -17 -9 -20 -8 -3 -14 -9 -13 -13 3 -18 -14 -52 -22 -47 -5 3 -8 2
-7 -3 4 -13 -25 -83 -35 -83 -5 0 -7 -6 -4 -12 2 -7 -5 -21 -16 -30 -11 -10
-17 -18 -13 -18 3 0 0 -13 -8 -29 -9 -16 -12 -31 -9 -35 4 -3 1 -6 -6 -6 -7 0
-10 -4 -7 -9 3 -5 -1 -14 -9 -21 -8 -7 -15 -21 -15 -31 0 -11 -3 -19 -8 -19
-4 0 -15 -18 -25 -40 -9 -22 -21 -40 -26 -40 -6 0 -8 -9 -6 -20 2 -11 -1 -20
-6 -20 -6 0 -7 -4 -4 -10 3 -5 1 -10 -4 -10 -6 0 -11 -7 -11 -16 0 -8 -4 -13
-9 -9 -6 3 -8 -4 -6 -15 2 -11 0 -20 -4 -20 -4 0 -13 -16 -21 -35 -8 -19 -18
-35 -22 -35 -5 0 -7 -4 -3 -9 3 -5 1 -12 -5 -16 -6 -4 -8 -11 -5 -16 4 -5 2
-9 -3 -9 -5 0 -12 -14 -16 -31 -3 -19 -10 -28 -17 -23 -8 4 -9 0 -4 -15 4 -12
2 -21 -4 -21 -6 0 -11 -5 -11 -11 0 -6 -7 -17 -15 -26 -8 -8 -13 -19 -10 -24
4 -5 1 -9 -4 -9 -6 0 -10 -3 -9 -7 3 -12 -54 -126 -76 -152 -12 -14 -15 -21
-6 -16 8 5 3 -7 -12 -27 -16 -20 -28 -40 -28 -45 0 -4 5 -1 10 7 5 8 10 10 10
4 0 -6 -6 -17 -14 -23 -8 -7 -18 -26 -21 -42 -4 -16 -12 -35 -18 -42 -7 -7
-17 -22 -24 -34 -11 -20 -10 -20 68 -21 43 -1 79 3 79 7 0 4 12 8 28 8 45 2
71 7 66 12 -2 2 14 11 37 19 47 16 159 124 159 155 0 4 4 6 9 3 5 -3 14 8 21
24 7 16 17 27 23 23 5 -3 7 -1 4 4 -4 6 2 21 13 33 11 12 17 27 14 31 -3 5 -1
9 3 9 5 0 14 9 21 21 9 14 10 19 2 14 -9 -6 -9 -2 -1 14 7 11 15 21 19 21 4 0
8 9 9 20 1 11 9 27 17 36 9 9 14 20 11 25 -4 5 -2 9 3 9 6 0 13 11 16 25 4 16
11 23 18 19 7 -4 8 -3 4 4 -4 6 -1 22 6 34 7 13 11 26 10 31 -1 4 3 7 9 7 6 0
9 6 7 12 -3 7 1 19 9 26 7 7 13 22 13 33 0 11 5 17 10 14 9 -6 14 8 11 29 -1
4 9 23 23 41 14 18 22 35 19 39 -3 3 0 14 8 23 8 10 21 32 29 48 8 17 19 33
23 36 4 3 9 15 10 27 0 11 5 18 9 16 7 -5 12 13 11 44 -1 6 5 12 13 12 8 0 13
3 12 8 -3 11 13 55 25 71 6 7 12 20 14 29 1 9 7 18 13 20 5 2 8 7 5 12 -3 5 3
16 12 26 10 10 17 20 15 23 -1 3 5 14 13 24 11 12 11 17 2 17 -8 1 -7 4 3 13
8 7 16 19 18 27 2 8 7 17 11 20 3 3 15 24 25 48 11 23 23 42 27 42 5 0 6 7 3
15 -4 8 -1 15 6 15 6 0 8 5 5 10 -3 6 0 10 7 10 9 0 9 3 -2 10 -8 5 -10 10 -5
10 6 0 19 14 28 30 10 17 15 30 11 30 -4 0 0 8 9 18 8 9 16 20 17 24 2 20 13
37 20 33 5 -3 6 4 3 15 -3 11 0 20 6 20 6 0 11 9 11 20 0 11 5 20 11 20 5 0 8
4 5 8 -3 5 3 18 14 29 10 12 16 24 13 27 -4 3 -1 6 6 6 7 0 10 4 7 9 -3 5 6
25 19 46 14 20 20 33 13 29 -7 -4 -6 1 3 12 9 10 20 30 24 44 4 14 13 32 20
40 8 8 14 18 15 22 8 35 14 48 22 48 5 0 7 4 3 9 -3 5 -1 12 5 16 6 4 8 10 5
15 -3 4 1 10 9 13 7 3 16 17 20 32 4 15 18 44 32 66 13 21 21 39 17 39 -5 0
-3 4 2 8 24 18 51 117 35 127 -4 3 -6 16 -5 30 2 14 -2 25 -8 25 -5 0 -8 3 -4
6 3 3 2 11 -4 18 -19 23 -97 184 -92 190 3 3 -2 8 -11 12 -9 3 -14 9 -12 13 3
4 -6 20 -20 36 -22 26 -24 27 -24 7z"/>
<path d="M5097 4674 c-3 -4 -31 -6 -62 -5 -42 1 -54 -2 -49 -12 5 -9 4 -9 -5
-1 -14 13 -84 7 -89 -7 -2 -5 -13 -9 -23 -9 -11 0 -17 -4 -14 -10 6 -9 -8 -14
-28 -11 -5 1 -6 -3 -2 -9 3 -5 1 -10 -5 -10 -6 0 -8 -4 -5 -10 3 -5 2 -10 -3
-10 -9 0 -58 -100 -54 -112 1 -5 -3 -8 -8 -8 -5 0 -10 -6 -10 -14 0 -7 -7 -19
-15 -26 -8 -7 -14 -18 -13 -24 1 -6 -3 -21 -10 -32 -10 -19 -9 -21 11 -20 12
1 32 -1 45 -6 12 -4 22 -4 22 0 0 4 27 7 60 7 33 0 60 -3 60 -7 0 -4 13 -3 28
2 16 4 36 4 45 -2 10 -5 17 -5 17 -1 0 8 224 8 238 0 4 -3 16 -1 27 3 11 4 30
3 43 -1 13 -5 21 -6 19 -1 -3 4 32 6 76 4 45 -1 103 -3 129 -3 27 -1 46 -5 42
-10 -3 -5 3 -6 12 -2 12 4 15 3 10 -5 -5 -9 -1 -9 18 -2 17 6 26 6 26 0 0 -6
3 -9 8 -9 17 3 33 -2 29 -8 -3 -5 7 -9 21 -9 25 -2 63 -10 70 -14 1 -2 6 -3
11 -4 5 0 13 -4 17 -8 4 -5 16 -8 26 -8 10 0 18 -5 18 -11 0 -5 5 -7 10 -4 6
3 10 1 10 -5 0 -6 5 -8 10 -5 6 3 10 1 10 -5 0 -6 4 -9 9 -6 5 3 14 -1 21 -9
7 -8 16 -13 20 -10 5 3 15 -3 22 -12 7 -10 20 -19 28 -21 8 -2 17 -8 18 -13 2
-5 8 -7 13 -3 5 3 12 -2 15 -10 3 -9 10 -14 14 -11 5 3 15 -1 23 -9 8 -8 17
-12 21 -9 3 4 6 2 6 -4 0 -5 11 -15 24 -21 19 -8 25 -8 30 3 2 7 -2 16 -10 19
-9 3 -13 10 -9 15 3 5 1 12 -5 16 -6 4 -8 11 -5 16 4 5 2 9 -3 9 -9 0 -25 37
-23 53 1 4 -4 7 -10 7 -5 0 -7 5 -4 10 3 6 3 10 -2 10 -8 0 -39 62 -34 69 2 2
-4 8 -12 13 -9 4 -14 17 -12 28 2 11 0 18 -4 15 -7 -4 -22 29 -20 43 0 2 -11
14 -25 27 -13 12 -22 26 -18 29 3 4 -4 9 -16 13 -12 3 -22 9 -22 14 0 5 -7 9
-15 9 -8 0 -15 5 -15 10 0 6 -7 10 -16 10 -9 0 -28 9 -44 20 -15 11 -30 17
-34 13 -3 -3 -6 -1 -6 5 0 7 -9 12 -20 12 -11 0 -20 4 -20 8 0 5 -6 9 -12 10
-30 2 -134 37 -140 47 -5 6 -8 5 -8 -4 0 -9 -4 -10 -12 -4 -7 6 -21 9 -30 8
-10 -2 -18 1 -18 7 0 5 -6 8 -12 5 -7 -2 -21 0 -30 5 -10 5 -18 5 -18 0 0 -5
-21 -6 -47 -2 -27 3 -70 5 -96 3 -33 -2 -46 1 -41 9 5 7 3 8 -6 3 -19 -12
-120 -14 -113 -2 3 5 -4 4 -15 -2 -26 -14 -35 -14 -27 -1 7 11 2 13 -8 4z"/>
</g>
</svg>
